Results
version=1
nRows=4
nColumns=143
inDegrees=yes
endheader
time	/jointset/groundthorax/r_z/value	/jointset/groundthorax/r_z/speed	/jointset/sternoclavicular/sternoclavicular_r2/value	/jointset/sternoclavicular/sternoclavicular_r2/speed	/jointset/sternoclavicular/sternoclavicular_r3/value	/jointset/sternoclavicular/sternoclavicular_r3/speed	/jointset/unrotscap/unrotscap_r3/value	/jointset/unrotscap/unrotscap_r3/speed	/jointset/unrotscap/unrotscap_r2/value	/jointset/unrotscap/unrotscap_r2/speed	/jointset/acromioclavicular/acromioclavicular_r2/value	/jointset/acromioclavicular/acromioclavicular_r2/speed	/jointset/acromioclavicular/acromioclavicular_r3/value	/jointset/acromioclavicular/acromioclavicular_r3/speed	/jointset/acromioclavicular/acromioclavicular_r1/value	/jointset/acromioclavicular/acromioclavicular_r1/speed	/jointset/unrothum/unrothum_r1/value	/jointset/unrothum/unrothum_r1/speed	/jointset/unrothum/unrothum_r3/value	/jointset/unrothum/unrothum_r3/speed	/jointset/unrothum/unrothum_r2/value	/jointset/unrothum/unrothum_r2/speed	/jointset/shoulder0/elv_angle/value	/jointset/shoulder0/elv_angle/speed	/jointset/shoulder1/shoulder_elv/value	/jointset/shoulder1/shoulder_elv/speed	/jointset/shoulder1/shoulder1_r2/value	/jointset/shoulder1/shoulder1_r2/speed	/jointset/shoulder2/shoulder_rot/value	/jointset/shoulder2/shoulder_rot/speed	/jointset/elbow/elbow_flexion/value	/jointset/elbow/elbow_flexion/speed	/jointset/radioulnar/pro_sup/value	/jointset/radioulnar/pro_sup/speed	/jointset/radiocarpal/deviation/value	/jointset/radiocarpal/deviation/speed	/jointset/radiocarpal/flexion/value	/jointset/radiocarpal/flexion/speed	/jointset/wrist_hand/wrist_hand_r1/value	/jointset/wrist_hand/wrist_hand_r1/speed	/jointset/wrist_hand/wrist_hand_r3/value	/jointset/wrist_hand/wrist_hand_r3/speed	/forceset/DELT1/activation	/forceset/DELT1/fiber_length	/forceset/DELT2/activation	/forceset/DELT2/fiber_length	/forceset/DELT3/activation	/forceset/DELT3/fiber_length	/forceset/SUPSP/activation	/forceset/SUPSP/fiber_length	/forceset/INFSP/activation	/forceset/INFSP/fiber_length	/forceset/SUBSC/activation	/forceset/SUBSC/fiber_length	/forceset/TMIN/activation	/forceset/TMIN/fiber_length	/forceset/TMAJ/activation	/forceset/TMAJ/fiber_length	/forceset/PECM1/activation	/forceset/PECM1/fiber_length	/forceset/PECM2/activation	/forceset/PECM2/fiber_length	/forceset/PECM3/activation	/forceset/PECM3/fiber_length	/forceset/LAT1/activation	/forceset/LAT1/fiber_length	/forceset/LAT2/activation	/forceset/LAT2/fiber_length	/forceset/LAT3/activation	/forceset/LAT3/fiber_length	/forceset/CORB/activation	/forceset/CORB/fiber_length	/forceset/TRIlong/activation	/forceset/TRIlong/fiber_length	/forceset/TRIlat/activation	/forceset/TRIlat/fiber_length	/forceset/TRImed/activation	/forceset/TRImed/fiber_length	/forceset/ANC/activation	/forceset/ANC/fiber_length	/forceset/SUP/activation	/forceset/SUP/fiber_length	/forceset/BIClong/activation	/forceset/BIClong/fiber_length	/forceset/BICshort/activation	/forceset/BICshort/fiber_length	/forceset/BRA/activation	/forceset/BRA/fiber_length	/forceset/BRD/activation	/forceset/BRD/fiber_length	/forceset/ECRL/activation	/forceset/ECRL/fiber_length	/forceset/ECRB/activation	/forceset/ECRB/fiber_length	/forceset/ECU/activation	/forceset/ECU/fiber_length	/forceset/FCR/activation	/forceset/FCR/fiber_length	/forceset/FCU/activation	/forceset/FCU/fiber_length	/forceset/PL/activation	/forceset/PL/fiber_length	/forceset/PT/activation	/forceset/PT/fiber_length	/forceset/PQ/activation	/forceset/PQ/fiber_length	/forceset/FDSL/activation	/forceset/FDSL/fiber_length	/forceset/FDSR/activation	/forceset/FDSR/fiber_length	/forceset/FDSM/activation	/forceset/FDSM/fiber_length	/forceset/FDSI/activation	/forceset/FDSI/fiber_length	/forceset/FDPL/activation	/forceset/FDPL/fiber_length	/forceset/FDPR/activation	/forceset/FDPR/fiber_length	/forceset/FDPM/activation	/forceset/FDPM/fiber_length	/forceset/FDPI/activation	/forceset/FDPI/fiber_length	/forceset/EDCL/activation	/forceset/EDCL/fiber_length	/forceset/EDCR/activation	/forceset/EDCR/fiber_length	/forceset/EDCM/activation	/forceset/EDCM/fiber_length	/forceset/EDCI/activation	/forceset/EDCI/fiber_length	/forceset/EDM/activation	/forceset/EDM/fiber_length	/forceset/EIP/activation	/forceset/EIP/fiber_length	/forceset/EPL/activation	/forceset/EPL/fiber_length	/forceset/EPB/activation	/forceset/EPB/fiber_length	/forceset/FPL/activation	/forceset/FPL/fiber_length	/forceset/APL/activation	/forceset/APL/fiber_length
      2.10596183	     10.00000028	      0.00000000	     -2.37268653	     -0.66989737	      1.00495803	      0.28373691	     -1.00495803	     -0.28373691	      2.37268653	      0.66989737	     -0.48042076	     -0.13564059	      3.88259157	      1.09619955	      1.74519819	      0.49273415	     -1.74519819	     -0.49273415	     -3.88259157	     -1.09619955	      0.48042076	      0.13564059	    -47.75128653	      6.63630697	      9.80446780	      2.76816476	     47.75128653	     -6.63630697	      2.62151785	     -6.53289932	      9.49923887	     -4.41974993	    -30.58414996	     -0.63669097	      0.24331865	      0.85867936	     -0.10240903	     -0.71290579	     16.14350830	     47.17289838	     -2.93380253	    -20.42324655	      0.00000000	      0.12486205	      0.00000000	      0.12303664	      0.00000000	      0.11578055	      0.00000000	      0.07488806	      0.00000000	      0.08141557	      0.00000000	      0.08092594	      0.00000000	      0.06205749	      0.00000000	      0.11780459	      0.00000000	      0.12892952	      0.00000000	      0.10479931	      0.00000000	      0.07997036	      0.00000000	      0.16523542	      0.00000000	      0.12859025	      0.00000000	      0.19260832	      0.00000000	      0.07094714	      0.00000000	      0.13735657	      0.00000000	      0.07612050	      0.00000000	      0.07110206	      0.00000000	      0.00582015	      0.00000000	      0.03024530	      0.00000000	      0.15786882	      0.00000000	      0.15924222	      0.00000000	      0.09080091	      0.00000000	      0.19676246	      0.00000000	      0.09298544	      0.00000000	      0.06508246	      0.00000000	      0.06090440	      0.00000000	      0.07598609	      0.00000000	      0.04837817	      0.00000000	      0.07863820	      0.00000000	      0.06414283	      0.00000000	      0.03028055	      0.00000000	      0.05577384	      0.00000000	      0.07805153	      0.00000000	      0.08033736	      0.00000000	      0.09337958	      0.00000000	      0.07839565	      0.00000000	      0.08283561	      0.00000000	      0.08004983	      0.00000000	      0.08142852	      0.00000000	      0.07499634	      0.00000000	      0.06215007	      0.00000000	      0.37980698	      0.00000000	      0.06969490	      0.00000000	      0.07242768	      0.00000000	      0.06700705	      0.00000000	      0.06427401	      0.00000000	      0.07883489	      0.00000000	      0.06906733	      0.00000000	      0.08359296
      2.10668178	     10.00000028	      0.00000000	     -2.37316966	     -0.67223784	      1.00516266	      0.28472822	     -1.00516266	     -0.28472822	      2.37316966	      0.67223784	     -0.48051858	     -0.13611449	      3.88338216	      1.10002942	      1.74555355	      0.49445565	     -1.74555355	     -0.49445565	     -3.88338216	     -1.10002942	      0.48051858	      0.13611449	    -47.74651285	      6.62489484	      9.80646422	      2.77783609	     47.74651285	     -6.62489484	      2.61684355	     -6.45191477	      9.49605028	     -4.43809357	    -30.58460838	     -0.63683926	      0.24393575	      0.85558467	     -0.10292160	     -0.71100814	     16.17739137	     46.95336565	     -2.94848655	    -20.36888274	      0.00000000	      0.12486205	      0.00000000	      0.12303664	      0.00000000	      0.11578055	      0.00000000	      0.07488806	      0.00000000	      0.08141557	      0.00000000	      0.08092594	      0.00000000	      0.06205749	      0.00000000	      0.11780459	      0.00000000	      0.12892952	      0.00000000	      0.10480139	      0.00000000	      0.07997172	      0.00000000	      0.16523542	      0.00000000	      0.12859049	      0.00000000	      0.19260868	      0.00000000	      0.07094846	      0.00000000	      0.13735657	      0.00000000	      0.07612050	      0.00000000	      0.07110206	      0.00000000	      0.00582015	      0.00000000	      0.03024530	      0.00000000	      0.15786882	      0.00000000	      0.15924464	      0.00000000	      0.09080091	      0.00000000	      0.19676246	      0.00000000	      0.09298544	      0.00000000	      0.06508246	      0.00000000	      0.06090440	      0.00000000	      0.07598609	      0.00000000	      0.04837817	      0.00000000	      0.07863820	      0.00000000	      0.06414283	      0.00000000	      0.03028055	      0.00000000	      0.05577384	      0.00000000	      0.07805153	      0.00000000	      0.08033736	      0.00000000	      0.09337958	      0.00000000	      0.07839565	      0.00000000	      0.08283561	      0.00000000	      0.08004983	      0.00000000	      0.08142852	      0.00000000	      0.07499634	      0.00000000	      0.06215007	      0.00000000	      0.37980698	      0.00000000	      0.06969490	      0.00000000	      0.07242768	      0.00000000	      0.06700705	      0.00000000	      0.06427401	      0.00000000	      0.07883489	      0.00000000	      0.06906733	      0.00000000	      0.08359296
      2.10789589	     10.00000028	      0.00000000	     -2.37398819	     -0.67610487	      1.00550935	      0.28636611	     -1.00550935	     -0.28636611	      2.37398819	      0.67610487	     -0.48068432	     -0.13689748	      3.88472157	      1.10635730	      1.74615561	      0.49729999	     -1.74615561	     -0.49729999	     -3.88472157	     -1.10635730	      0.48068432	      0.13689748	    -47.73848115	      6.60571028	      9.80984657	      2.79381549	     47.73848115	     -6.60571028	      2.60909527	     -6.31084636	      9.49064326	     -4.46882795	    -30.58538198	     -0.63756484	      0.24497130	      0.85025716	     -0.10378293	     -0.70788356	     16.23417095	     46.57841461	     -2.97316202	    -20.27937019	      0.00000000	      0.12486205	      0.00000000	      0.12303664	      0.00000000	      0.11578055	      0.00000000	      0.07488806	      0.00000000	      0.08141557	      0.00000000	      0.08092594	      0.00000000	      0.06205749	      0.00000000	      0.11780459	      0.00000000	      0.12892952	      0.00000000	      0.10480490	      0.00000000	      0.07997402	      0.00000000	      0.16523542	      0.00000000	      0.12859086	      0.00000000	      0.19260933	      0.00000000	      0.07095068	      0.00000000	      0.13735657	      0.00000000	      0.07612050	      0.00000000	      0.07110206	      0.00000000	      0.00582015	      0.00000000	      0.03024530	      0.00000000	      0.15786882	      0.00000000	      0.15924873	      0.00000000	      0.09080091	      0.00000000	      0.19676246	      0.00000000	      0.09298544	      0.00000000	      0.06508246	      0.00000000	      0.06090440	      0.00000000	      0.07598609	      0.00000000	      0.04837817	      0.00000000	      0.07863820	      0.00000000	      0.06414283	      0.00000000	      0.03028055	      0.00000000	      0.05577384	      0.00000000	      0.07805153	      0.00000000	      0.08033736	      0.00000000	      0.09337958	      0.00000000	      0.07839565	      0.00000000	      0.08283561	      0.00000000	      0.08004983	      0.00000000	      0.08142852	      0.00000000	      0.07499634	      0.00000000	      0.06215007	      0.00000000	      0.37980698	      0.00000000	      0.06969490	      0.00000000	      0.07242768	      0.00000000	      0.06700705	      0.00000000	      0.06427401	      0.00000000	      0.07883489	      0.00000000	      0.06906733	      0.00000000	      0.08359296
      2.10874545	     10.00000028	      0.00000000	     -2.37456371	     -0.67874901	      1.00575311	      0.28748604	     -1.00575311	     -0.28748604	      2.37456371	      0.67874901	     -0.48080085	     -0.13743287	      3.88566334	      1.11068409	      1.74657893	      0.49924486	     -1.74657893	     -0.49924486	     -3.88566334	     -1.11068409	      0.48080085	      0.13743287	    -47.73287488	      6.59233279	      9.81222474	      2.80474168	     47.73287488	     -6.59233279	      2.60377698	     -6.20877790	      9.48683764	     -4.49017676	    -30.58592389	     -0.63819743	      0.24569203	      0.84644997	     -0.10438342	     -0.70575573	     16.27362945	     46.31263043	     -2.99036459	    -20.21841237	      0.00000000	      0.12486205	      0.00000000	      0.12303664	      0.00000000	      0.11578055	      0.00000000	      0.07488806	      0.00000000	      0.08141557	      0.00000000	      0.08092594	      0.00000000	      0.06205749	      0.00000000	      0.11780459	      0.00000000	      0.12892952	      0.00000000	      0.10480736	      0.00000000	      0.07997565	      0.00000000	      0.16523542	      0.00000000	      0.12859110	      0.00000000	      0.19260976	      0.00000000	      0.07095224	      0.00000000	      0.13735657	      0.00000000	      0.07612050	      0.00000000	      0.07110206	      0.00000000	      0.00582015	      0.00000000	      0.03024530	      0.00000000	      0.15786882	      0.00000000	      0.15925161	      0.00000000	      0.09080091	      0.00000000	      0.19676246	      0.00000000	      0.09298544	      0.00000000	      0.06508246	      0.00000000	      0.06090440	      0.00000000	      0.07598609	      0.00000000	      0.04837817	      0.00000000	      0.07863820	      0.00000000	      0.06414283	      0.00000000	      0.03028055	      0.00000000	      0.05577384	      0.00000000	      0.07805153	      0.00000000	      0.08033736	      0.00000000	      0.09337958	      0.00000000	      0.07839565	      0.00000000	      0.08283561	      0.00000000	      0.08004983	      0.00000000	      0.08142852	      0.00000000	      0.07499634	      0.00000000	      0.06215007	      0.00000000	      0.37980698	      0.00000000	      0.06969490	      0.00000000	      0.07242768	      0.00000000	      0.06700705	      0.00000000	      0.06427401	      0.00000000	      0.07883489	      0.00000000	      0.06906733	      0.00000000	      0.08359296
